<?xml version="1.0" encoding="utf-8"?>
<svg version="1.1" xmlns:xlink="http://www.w3.org/1999/xlink" width="50px" height="42px" xmlns="http://www.w3.org/2000/svg">
  <g transform="matrix(1 0 0 1 -658 -642 )">
    <path d="M 37.9231770833333 19.5234375  C 38.3355034722222 19.9390625  38.5416666666667 20.43125  38.5416666666667 21  C 38.5416666666667 21.56875  38.3355034722222 22.0609375  37.9231770833333 22.4765625  L 20.21484375 40.3265625  C 19.8025173611111 40.7421875  19.3142361111111 40.95  18.75 40.95  C 18.1857638888889 40.95  17.6974826388889 40.7421875  17.28515625 40.3265625  C 16.8728298611111 39.9109375  16.6666666666667 39.41875  16.6666666666667 38.85  L 16.6666666666667 29  L 2.08333333333333 29  C 1.51909722222222 29.4  1.03081597222222 29.1921875  0.618489583333333 28.7765625  C 0.206163194444444 28.3609375  0 27.86875  0 27.3  L 0 14.7  C 0 14.13125  0.206163194444444 13.6390625  0.618489583333333 13.2234375  C 1.03081597222222 12.8078125  1.51909722222222 12.6  2.08333333333333 13  L 16.6666666666667 13  L 16.6666666666667 3.15  C 16.6666666666667 2.58124999999999  16.8728298611111 2.08906249999999  17.28515625 1.6734375  C 17.6974826388889 1.2578125  18.1857638888889 1.05  18.75 1.05  C 19.3142361111111 1.05  19.8025173611111 1.2578125  20.21484375 1.6734375  L 37.9231770833333 19.5234375  Z M 47.2493489583333 2.77265625  C 49.0831163194444 4.62109375  50 6.84687499999999  50 9.45  L 50 32.55  C 50 35.153125  49.0831163194444 37.37890625  47.2493489583333 39.22734375  C 45.4155815972222 41.07578125  43.2074652777778 42  40.625 42  L 30.2083333333333 42  C 29.9262152777778 42  29.6820746527778 41.89609375  29.4759114583333 41.68828125  C 29.2697482638889 41.48046875  29.1666666666667 41.234375  29.1666666666667 40.95  C 29.1666666666667 40.8625  29.1558159722222 40.64375  29.1341145833333 40.29375  C 29.1124131944444 39.94375  29.1069878472222 39.65390625  29.1178385416667 39.42421875  C 29.1286892361111 39.19453125  29.1612413194444 38.9375  29.2154947916667 38.653125  C 29.2697482638889 38.36875  29.3782552083333 38.15546875  29.541015625 38.01328125  C 29.7037760416667 37.87109375  29.9262152777778 37.8  30.2083333333333 37  L 40.625 37  C 42.0572916666667 37.8  43.2834201388889 37.2859375  44.3033854166667 36.2578125  C 45.3233506944445 35.2296875  45.8333333333333 33.99375  45 32.55  L 45 9.45  C 45.8333333333333 8.00625  45.3233506944445 6.7703125  44.3033854166667 5.7421875  C 43.2834201388889 4.71406249999999  42.0572916666667 4.2  40.625 4.2  L 31.25 4.2  L 30.8919270833333 4.2  L 30.46875 4.2  C 30.46875 4.2  30.3439670138889 4.1890625  30.0944010416667 4.1671875  C 29.8448350694444 4.1453125  29.7200520833333 4.1125  29.7200520833333 4.06875  C 29.7200520833333 4.025  29.6332465277778 3.96484375  29.4596354166667 3.88828125  C 29.2860243055556 3.81171874999999  29.2100694444444 3.71328124999999  29.2317708333333 3.59296875  C 29.2534722222222 3.47265625  29.2317708333333 3.325  29.1666666666667 3.15  C 29.1666666666667 3.0625  29.1558159722222 2.84375  29.1341145833333 2.49375  C 29.1124131944444 2.14375  29.1069878472222 1.85390625  29.1178385416667 1.62421875  C 29.1286892361111 1.39453125  29.1612413194444 1.1375  29.2154947916667 0.853124999999998  C 29.2697482638889 0.568749999999996  29.3782552083333 0.355468749999998  29.541015625 0.213281250000002  C 29.7037760416667 0.071093749999996  29.9262152777778 0  30.2083333333333 0  L 40.625 0  C 43.2074652777778 0  45.4155815972222 0.924218749999994  47.2493489583333 2.77265625  Z " fill-rule="nonzero" fill="#ffffff" stroke="none" transform="matrix(1 0 0 1 658 642 )" />
  </g>
</svg>