<?xml version="1.0" encoding="utf-8"?>
<svg version="1.1" xmlns:xlink="http://www.w3.org/1999/xlink" width="14px" height="17px" xmlns="http://www.w3.org/2000/svg">
  <g transform="matrix(1 0 0 1 -61 -39 )">
    <path d="M 13.90703125 12.2906901041667  C 13.9690104166667 12.8477647569444  14 13.4398871527778  14 14.0670572916667  C 14 14.8713107638889  13.7721354166667 15.5611979166667  13.31640625 16.13671875  C 12.8606770833333 16.7122395833333  12.3119791666667 17  11.6703125 17  L 2.3296875 17  C 1.68802083333333 17  1.13932291666667 16.7122395833333  0.68359375 16.13671875  C 0.227864583333333 15.5611979166667  0 14.8713107638889  0 14.0670572916667  C 0 13.4398871527778  0.0309895833333334 12.8477647569444  0.0929687500000001 12.2906901041667  C 0.154947916666667 11.7336154513889  0.269791666666667 11.1728515625  0.4375 10.6083984375  C 0.605208333333334 10.0439453125  0.818489583333333 9.56065538194444  1.07734375 9.15852864583333  C 1.33619791666667 8.75640190972222  1.67890625 8.42805989583333  2.10546875 8.17350260416667  C 2.53203125 7.9189453125  3.02239583333333 7.79166666666667  3.5765625 7.79166666666667  C 4.53177083333333 8.73611111111111  5.67291666666667 9.20833333333333  7 9.20833333333333  C 8.32708333333334 9.20833333333333  9.46822916666667 8.73611111111111  10.4234375 7.79166666666667  C 10.9776041666667 7.79166666666667  11.46796875 7.9189453125  11.89453125 8.17350260416667  C 12.32109375 8.42805989583333  12.6638020833333 8.75640190972222  12.92265625 9.15852864583333  C 13.1815104166667 9.56065538194444  13.3947916666667 10.0439453125  13.5625 10.6083984375  C 13.7302083333333 11.1728515625  13.8450520833333 11.7336154513889  13.90703125 12.2906901041667  Z M 9.96953125 1.2451171875  C 10.78984375 2.0751953125  11.2 3.07682291666667  11.2 4.25  C 11.2 5.42317708333333  10.78984375 6.4248046875  9.96953125 7.2548828125  C 9.14921875 8.0849609375  8.159375 8.5  7 8.5  C 5.840625 8.5  4.85078125 8.0849609375  4.03046875 7.2548828125  C 3.21015625 6.4248046875  2.8 5.42317708333333  2.8 4.25  C 2.8 3.07682291666667  3.21015625 2.0751953125  4.03046875 1.2451171875  C 4.85078125 0.4150390625  5.840625 0  7 0  C 8.159375 0  9.14921875 0.4150390625  9.96953125 1.2451171875  Z " fill-rule="nonzero" fill="#ffffff" stroke="none" transform="matrix(1 0 0 1 61 39 )" />
  </g>
</svg>