<?xml version="1.0" encoding="utf-8"?>
<svg version="1.1" xmlns:xlink="http://www.w3.org/1999/xlink" width="16px" height="16px" viewBox="1457 604  16 16" xmlns="http://www.w3.org/2000/svg">
  <path d="M 1465 604  C 1469.48 604  1473 607.52  1473 612  C 1473 616.48  1469.48 620  1465 620  C 1460.52 620  1457 616.48  1457 612  C 1457 607.52  1460.52 604  1465 604  Z " fill-rule="nonzero" fill="#ffffff" stroke="none" />
  <path d="M 1465 604.5  C 1469.2 604.5  1472.5 607.8  1472.5 612  C 1472.5 616.2  1469.2 619.5  1465 619.5  C 1460.8 619.5  1457.5 616.2  1457.5 612  C 1457.5 607.8  1460.8 604.5  1465 604.5  Z " stroke-width="1" stroke="#797979" fill="none" />
  <path d="M 1465 616  C 1462.76 616  1461 614.24  1461 612  C 1461 609.76  1462.76 608  1465 608  C 1467.24 608  1469 609.76  1469 612  C 1469 614.24  1467.24 616  1465 616  " fill-rule="nonzero" fill="#797979" stroke="none" />
</svg>