<?xml version="1.0" encoding="utf-8"?>
<svg version="1.1" xmlns:xlink="http://www.w3.org/1999/xlink" width="16px" height="16px" viewBox="1346 484  16 16" xmlns="http://www.w3.org/2000/svg">
  <path d="M 1354 484  C 1358.48 484  1362 487.52  1362 492  C 1362 496.48  1358.48 500  1354 500  C 1349.52 500  1346 496.48  1346 492  C 1346 487.52  1349.52 484  1354 484  Z " fill-rule="nonzero" fill="#ffffff" stroke="none" />
  <path d="M 1354 484.5  C 1358.2 484.5  1361.5 487.8  1361.5 492  C 1361.5 496.2  1358.2 499.5  1354 499.5  C 1349.8 499.5  1346.5 496.2  1346.5 492  C 1346.5 487.8  1349.8 484.5  1354 484.5  Z " stroke-width="1" stroke="#797979" fill="none" />
  <path d="M 1354 496  C 1351.76 496  1350 494.24  1350 492  C 1350 489.76  1351.76 488  1354 488  C 1356.24 488  1358 489.76  1358 492  C 1358 494.24  1356.24 496  1354 496  " fill-rule="nonzero" fill="#797979" stroke="none" />
</svg>