<?xml version="1.0" encoding="utf-8"?>
<svg version="1.1" xmlns:xlink="http://www.w3.org/1999/xlink" width="16px" height="16px" viewBox="1346 242  16 16" xmlns="http://www.w3.org/2000/svg">
  <path d="M 1354 242  C 1358.48 242  1362 245.52  1362 250  C 1362 254.48  1358.48 258  1354 258  C 1349.52 258  1346 254.48  1346 250  C 1346 245.52  1349.52 242  1354 242  Z " fill-rule="nonzero" fill="#ffffff" stroke="none" />
  <path d="M 1354 242.5  C 1358.2 242.5  1361.5 245.8  1361.5 250  C 1361.5 254.2  1358.2 257.5  1354 257.5  C 1349.8 257.5  1346.5 254.2  1346.5 250  C 1346.5 245.8  1349.8 242.5  1354 242.5  Z " stroke-width="1" stroke="#797979" fill="none" />
  <path d="M 1354 254  C 1351.76 254  1350 252.24  1350 250  C 1350 247.76  1351.76 246  1354 246  C 1356.24 246  1358 247.76  1358 250  C 1358 252.24  1356.24 254  1354 254  " fill-rule="nonzero" fill="#797979" stroke="none" />
</svg>