<?xml version="1.0" encoding="utf-8"?>
<svg version="1.1" xmlns:xlink="http://www.w3.org/1999/xlink" width="16px" height="16px" viewBox="1346 303  16 16" xmlns="http://www.w3.org/2000/svg">
  <path d="M 1354 303  C 1358.48 303  1362 306.52  1362 311  C 1362 315.48  1358.48 319  1354 319  C 1349.52 319  1346 315.48  1346 311  C 1346 306.52  1349.52 303  1354 303  Z " fill-rule="nonzero" fill="#ffffff" stroke="none" />
  <path d="M 1354 303.5  C 1358.2 303.5  1361.5 306.8  1361.5 311  C 1361.5 315.2  1358.2 318.5  1354 318.5  C 1349.8 318.5  1346.5 315.2  1346.5 311  C 1346.5 306.8  1349.8 303.5  1354 303.5  Z " stroke-width="1" stroke="#797979" fill="none" />
  <path d="M 1354 315  C 1351.76 315  1350 313.24  1350 311  C 1350 308.76  1351.76 307  1354 307  C 1356.24 307  1358 308.76  1358 311  C 1358 313.24  1356.24 315  1354 315  " fill-rule="nonzero" fill="#797979" stroke="none" />
</svg>