<?xml version="1.0" encoding="utf-8"?>
<svg version="1.1" xmlns:xlink="http://www.w3.org/1999/xlink" width="16px" height="16px" viewBox="1457 366  16 16" xmlns="http://www.w3.org/2000/svg">
  <path d="M 1465 366  C 1469.48 366  1473 369.52  1473 374  C 1473 378.48  1469.48 382  1465 382  C 1460.52 382  1457 378.48  1457 374  C 1457 369.52  1460.52 366  1465 366  Z " fill-rule="nonzero" fill="#ffffff" stroke="none" />
  <path d="M 1465 366.5  C 1469.2 366.5  1472.5 369.8  1472.5 374  C 1472.5 378.2  1469.2 381.5  1465 381.5  C 1460.8 381.5  1457.5 378.2  1457.5 374  C 1457.5 369.8  1460.8 366.5  1465 366.5  Z " stroke-width="1" stroke="#797979" fill="none" />
  <path d="M 1465 378  C 1462.76 378  1461 376.24  1461 374  C 1461 371.76  1462.76 370  1465 370  C 1467.24 370  1469 371.76  1469 374  C 1469 376.24  1467.24 378  1465 378  " fill-rule="nonzero" fill="#797979" stroke="none" />
</svg>