<?xml version="1.0" encoding="utf-8"?>
<svg version="1.1" xmlns:xlink="http://www.w3.org/1999/xlink" width="16px" height="16px" viewBox="1346 604  16 16" xmlns="http://www.w3.org/2000/svg">
  <path d="M 1354 604  C 1358.48 604  1362 607.52  1362 612  C 1362 616.48  1358.48 620  1354 620  C 1349.52 620  1346 616.48  1346 612  C 1346 607.52  1349.52 604  1354 604  Z " fill-rule="nonzero" fill="#ffffff" stroke="none" />
  <path d="M 1354 604.5  C 1358.2 604.5  1361.5 607.8  1361.5 612  C 1361.5 616.2  1358.2 619.5  1354 619.5  C 1349.8 619.5  1346.5 616.2  1346.5 612  C 1346.5 607.8  1349.8 604.5  1354 604.5  Z " stroke-width="1" stroke="#797979" fill="none" />
  <path d="M 1354 616  C 1351.76 616  1350 614.24  1350 612  C 1350 609.76  1351.76 608  1354 608  C 1356.24 608  1358 609.76  1358 612  C 1358 614.24  1356.24 616  1354 616  " fill-rule="nonzero" fill="#797979" stroke="none" />
</svg>