<?xml version="1.0" encoding="utf-8"?>
<svg version="1.1" xmlns:xlink="http://www.w3.org/1999/xlink" width="16px" height="16px" viewBox="1457 665  16 16" xmlns="http://www.w3.org/2000/svg">
  <path d="M 1465 665  C 1469.48 665  1473 668.52  1473 673  C 1473 677.48  1469.48 681  1465 681  C 1460.52 681  1457 677.48  1457 673  C 1457 668.52  1460.52 665  1465 665  Z " fill-rule="nonzero" fill="#ffffff" stroke="none" />
  <path d="M 1465 665.5  C 1469.2 665.5  1472.5 668.8  1472.5 673  C 1472.5 677.2  1469.2 680.5  1465 680.5  C 1460.8 680.5  1457.5 677.2  1457.5 673  C 1457.5 668.8  1460.8 665.5  1465 665.5  Z " stroke-width="1" stroke="#797979" fill="none" />
  <path d="M 1465 677  C 1462.76 677  1461 675.24  1461 673  C 1461 670.76  1462.76 669  1465 669  C 1467.24 669  1469 670.76  1469 673  C 1469 675.24  1467.24 677  1465 677  " fill-rule="nonzero" fill="#797979" stroke="none" />
</svg>