<?xml version="1.0" encoding="utf-8"?>
<svg version="1.1" xmlns:xlink="http://www.w3.org/1999/xlink" width="16px" height="16px" viewBox="1457 242  16 16" xmlns="http://www.w3.org/2000/svg">
  <path d="M 1465 242  C 1469.48 242  1473 245.52  1473 250  C 1473 254.48  1469.48 258  1465 258  C 1460.52 258  1457 254.48  1457 250  C 1457 245.52  1460.52 242  1465 242  Z " fill-rule="nonzero" fill="#ffffff" stroke="none" />
  <path d="M 1465 242.5  C 1469.2 242.5  1472.5 245.8  1472.5 250  C 1472.5 254.2  1469.2 257.5  1465 257.5  C 1460.8 257.5  1457.5 254.2  1457.5 250  C 1457.5 245.8  1460.8 242.5  1465 242.5  Z " stroke-width="1" stroke="#797979" fill="none" />
  <path d="M 1465 254  C 1462.76 254  1461 252.24  1461 250  C 1461 247.76  1462.76 246  1465 246  C 1467.24 246  1469 247.76  1469 250  C 1469 252.24  1467.24 254  1465 254  " fill-rule="nonzero" fill="#797979" stroke="none" />
</svg>