<?xml version="1.0" encoding="utf-8"?>
<svg version="1.1" xmlns:xlink="http://www.w3.org/1999/xlink" width="16px" height="16px" viewBox="1457 303  16 16" xmlns="http://www.w3.org/2000/svg">
  <path d="M 1465 303  C 1469.48 303  1473 306.52  1473 311  C 1473 315.48  1469.48 319  1465 319  C 1460.52 319  1457 315.48  1457 311  C 1457 306.52  1460.52 303  1465 303  Z " fill-rule="nonzero" fill="#ffffff" stroke="none" />
  <path d="M 1465 303.5  C 1469.2 303.5  1472.5 306.8  1472.5 311  C 1472.5 315.2  1469.2 318.5  1465 318.5  C 1460.8 318.5  1457.5 315.2  1457.5 311  C 1457.5 306.8  1460.8 303.5  1465 303.5  Z " stroke-width="1" stroke="#797979" fill="none" />
  <path d="M 1465 315  C 1462.76 315  1461 313.24  1461 311  C 1461 308.76  1462.76 307  1465 307  C 1467.24 307  1469 308.76  1469 311  C 1469 313.24  1467.24 315  1465 315  " fill-rule="nonzero" fill="#797979" stroke="none" />
</svg>