<?xml version="1.0" encoding="utf-8"?>
<svg version="1.1" xmlns:xlink="http://www.w3.org/1999/xlink" width="30px" height="23px" xmlns="http://www.w3.org/2000/svg">
  <g transform="matrix(1 0 0 1 -784 -114 )">
    <path d="M 5.625 11.5  L 9.375 11.5  L 9.375 19.1666666666667  L 5.625 19.1666666666667  L 5.625 11.5  Z M 11.25 3.83333333333333  L 15 3.83333333333333  L 15 19.1666666666667  L 11.25 19.1666666666667  L 11.25 3.83333333333333  Z M 2 21  L 30 21  L 30 23  L 0 23  L 0 0  L 2 0  L 2 21  Z M 16.875 7.66666666666667  L 20.625 7.66666666666667  L 20.625 19.1666666666667  L 16.875 19.1666666666667  L 16.875 7.66666666666667  Z M 22 1.91666666666667  L 26 1.91666666666667  L 26 19.1666666666667  L 22 19.1666666666667  L 22 1.91666666666667  Z " fill-rule="nonzero" fill="#ffffff" stroke="none" transform="matrix(1 0 0 1 784 114 )" />
  </g>
</svg>