<?xml version="1.0" encoding="utf-8"?>
<svg version="1.1" xmlns:xlink="http://www.w3.org/1999/xlink" width="16px" height="16px" viewBox="1548 353  16 16" xmlns="http://www.w3.org/2000/svg">
  <path d="M 1556 353  C 1560.48 353  1564 356.52  1564 361  C 1564 365.48  1560.48 369  1556 369  C 1551.52 369  1548 365.48  1548 361  C 1548 356.52  1551.52 353  1556 353  Z " fill-rule="nonzero" fill="#ffffff" stroke="none" />
  <path d="M 1556 353.5  C 1560.2 353.5  1563.5 356.8  1563.5 361  C 1563.5 365.2  1560.2 368.5  1556 368.5  C 1551.8 368.5  1548.5 365.2  1548.5 361  C 1548.5 356.8  1551.8 353.5  1556 353.5  Z " stroke-width="1" stroke="#797979" fill="none" />
  <path d="M 1556 365  C 1553.76 365  1552 363.24  1552 361  C 1552 358.76  1553.76 357  1556 357  C 1558.24 357  1560 358.76  1560 361  C 1560 363.24  1558.24 365  1556 365  " fill-rule="nonzero" fill="#797979" stroke="none" />
</svg>