<?xml version="1.0" encoding="utf-8"?>
<svg version="1.1" xmlns:xlink="http://www.w3.org/1999/xlink" width="16px" height="16px" viewBox="1437 414  16 16" xmlns="http://www.w3.org/2000/svg">
  <path d="M 1445 414  C 1449.48 414  1453 417.52  1453 422  C 1453 426.48  1449.48 430  1445 430  C 1440.52 430  1437 426.48  1437 422  C 1437 417.52  1440.52 414  1445 414  Z " fill-rule="nonzero" fill="#ffffff" stroke="none" />
  <path d="M 1445 414.5  C 1449.2 414.5  1452.5 417.8  1452.5 422  C 1452.5 426.2  1449.2 429.5  1445 429.5  C 1440.8 429.5  1437.5 426.2  1437.5 422  C 1437.5 417.8  1440.8 414.5  1445 414.5  Z " stroke-width="1" stroke="#797979" fill="none" />
  <path d="M 1445 426  C 1442.76 426  1441 424.24  1441 422  C 1441 419.76  1442.76 418  1445 418  C 1447.24 418  1449 419.76  1449 422  C 1449 424.24  1447.24 426  1445 426  " fill-rule="nonzero" fill="#797979" stroke="none" />
</svg>