<?xml version="1.0" encoding="utf-8"?>
<svg version="1.1" xmlns:xlink="http://www.w3.org/1999/xlink" width="16px" height="16px" viewBox="1548 414  16 16" xmlns="http://www.w3.org/2000/svg">
  <path d="M 1556 414  C 1560.48 414  1564 417.52  1564 422  C 1564 426.48  1560.48 430  1556 430  C 1551.52 430  1548 426.48  1548 422  C 1548 417.52  1551.52 414  1556 414  Z " fill-rule="nonzero" fill="#ffffff" stroke="none" />
  <path d="M 1556 414.5  C 1560.2 414.5  1563.5 417.8  1563.5 422  C 1563.5 426.2  1560.2 429.5  1556 429.5  C 1551.8 429.5  1548.5 426.2  1548.5 422  C 1548.5 417.8  1551.8 414.5  1556 414.5  Z " stroke-width="1" stroke="#797979" fill="none" />
  <path d="M 1556 426  C 1553.76 426  1552 424.24  1552 422  C 1552 419.76  1553.76 418  1556 418  C 1558.24 418  1560 419.76  1560 422  C 1560 424.24  1558.24 426  1556 426  " fill-rule="nonzero" fill="#797979" stroke="none" />
</svg>