<?xml version="1.0" encoding="utf-8"?>
<svg version="1.1" xmlns:xlink="http://www.w3.org/1999/xlink" width="16px" height="16px" viewBox="1437 477  16 16" xmlns="http://www.w3.org/2000/svg">
  <path d="M 1445 477  C 1449.48 477  1453 480.52  1453 485  C 1453 489.48  1449.48 493  1445 493  C 1440.52 493  1437 489.48  1437 485  C 1437 480.52  1440.52 477  1445 477  Z " fill-rule="nonzero" fill="#ffffff" stroke="none" />
  <path d="M 1445 477.5  C 1449.2 477.5  1452.5 480.8  1452.5 485  C 1452.5 489.2  1449.2 492.5  1445 492.5  C 1440.8 492.5  1437.5 489.2  1437.5 485  C 1437.5 480.8  1440.8 477.5  1445 477.5  Z " stroke-width="1" stroke="#797979" fill="none" />
  <path d="M 1445 489  C 1442.76 489  1441 487.24  1441 485  C 1441 482.76  1442.76 481  1445 481  C 1447.24 481  1449 482.76  1449 485  C 1449 487.24  1447.24 489  1445 489  " fill-rule="nonzero" fill="#797979" stroke="none" />
</svg>