<?xml version="1.0" encoding="utf-8"?>
<svg version="1.1" xmlns:xlink="http://www.w3.org/1999/xlink" width="16px" height="16px" viewBox="1548 477  16 16" xmlns="http://www.w3.org/2000/svg">
  <path d="M 1556 477  C 1560.48 477  1564 480.52  1564 485  C 1564 489.48  1560.48 493  1556 493  C 1551.52 493  1548 489.48  1548 485  C 1548 480.52  1551.52 477  1556 477  Z " fill-rule="nonzero" fill="#ffffff" stroke="none" />
  <path d="M 1556 477.5  C 1560.2 477.5  1563.5 480.8  1563.5 485  C 1563.5 489.2  1560.2 492.5  1556 492.5  C 1551.8 492.5  1548.5 489.2  1548.5 485  C 1548.5 480.8  1551.8 477.5  1556 477.5  Z " stroke-width="1" stroke="#797979" fill="none" />
  <path d="M 1556 489  C 1553.76 489  1552 487.24  1552 485  C 1552 482.76  1553.76 481  1556 481  C 1558.24 481  1560 482.76  1560 485  C 1560 487.24  1558.24 489  1556 489  " fill-rule="nonzero" fill="#797979" stroke="none" />
</svg>