<?xml version="1.0" encoding="utf-8"?>
<svg version="1.1" xmlns:xlink="http://www.w3.org/1999/xlink" width="16px" height="16px" viewBox="1437 595  16 16" xmlns="http://www.w3.org/2000/svg">
  <path d="M 1445 595  C 1449.48 595  1453 598.52  1453 603  C 1453 607.48  1449.48 611  1445 611  C 1440.52 611  1437 607.48  1437 603  C 1437 598.52  1440.52 595  1445 595  Z " fill-rule="nonzero" fill="#ffffff" stroke="none" />
  <path d="M 1445 595.5  C 1449.2 595.5  1452.5 598.8  1452.5 603  C 1452.5 607.2  1449.2 610.5  1445 610.5  C 1440.8 610.5  1437.5 607.2  1437.5 603  C 1437.5 598.8  1440.8 595.5  1445 595.5  Z " stroke-width="1" stroke="#797979" fill="none" />
  <path d="M 1445 607  C 1442.76 607  1441 605.24  1441 603  C 1441 600.76  1442.76 599  1445 599  C 1447.24 599  1449 600.76  1449 603  C 1449 605.24  1447.24 607  1445 607  " fill-rule="nonzero" fill="#797979" stroke="none" />
</svg>