<?xml version="1.0" encoding="utf-8"?>
<svg version="1.1" xmlns:xlink="http://www.w3.org/1999/xlink" width="16px" height="16px" viewBox="1548 595  16 16" xmlns="http://www.w3.org/2000/svg">
  <path d="M 1556 595  C 1560.48 595  1564 598.52  1564 603  C 1564 607.48  1560.48 611  1556 611  C 1551.52 611  1548 607.48  1548 603  C 1548 598.52  1551.52 595  1556 595  Z " fill-rule="nonzero" fill="#ffffff" stroke="none" />
  <path d="M 1556 595.5  C 1560.2 595.5  1563.5 598.8  1563.5 603  C 1563.5 607.2  1560.2 610.5  1556 610.5  C 1551.8 610.5  1548.5 607.2  1548.5 603  C 1548.5 598.8  1551.8 595.5  1556 595.5  Z " stroke-width="1" stroke="#797979" fill="none" />
  <path d="M 1556 607  C 1553.76 607  1552 605.24  1552 603  C 1552 600.76  1553.76 599  1556 599  C 1558.24 599  1560 600.76  1560 603  C 1560 605.24  1558.24 607  1556 607  " fill-rule="nonzero" fill="#797979" stroke="none" />
</svg>