<?xml version="1.0" encoding="utf-8"?>
<svg version="1.1" xmlns:xlink="http://www.w3.org/1999/xlink" width="16px" height="16px" viewBox="1437 651  16 16" xmlns="http://www.w3.org/2000/svg">
  <path d="M 1445 651  C 1449.48 651  1453 654.52  1453 659  C 1453 663.48  1449.48 667  1445 667  C 1440.52 667  1437 663.48  1437 659  C 1437 654.52  1440.52 651  1445 651  Z " fill-rule="nonzero" fill="#ffffff" stroke="none" />
  <path d="M 1445 651.5  C 1449.2 651.5  1452.5 654.8  1452.5 659  C 1452.5 663.2  1449.2 666.5  1445 666.5  C 1440.8 666.5  1437.5 663.2  1437.5 659  C 1437.5 654.8  1440.8 651.5  1445 651.5  Z " stroke-width="1" stroke="#797979" fill="none" />
  <path d="M 1445 663  C 1442.76 663  1441 661.24  1441 659  C 1441 656.76  1442.76 655  1445 655  C 1447.24 655  1449 656.76  1449 659  C 1449 661.24  1447.24 663  1445 663  " fill-rule="nonzero" fill="#797979" stroke="none" />
</svg>