<?xml version="1.0" encoding="utf-8"?>
<svg version="1.1" xmlns:xlink="http://www.w3.org/1999/xlink" width="16px" height="16px" viewBox="1437 715  16 16" xmlns="http://www.w3.org/2000/svg">
  <path d="M 1445 715  C 1449.48 715  1453 718.52  1453 723  C 1453 727.48  1449.48 731  1445 731  C 1440.52 731  1437 727.48  1437 723  C 1437 718.52  1440.52 715  1445 715  Z " fill-rule="nonzero" fill="#ffffff" stroke="none" />
  <path d="M 1445 715.5  C 1449.2 715.5  1452.5 718.8  1452.5 723  C 1452.5 727.2  1449.2 730.5  1445 730.5  C 1440.8 730.5  1437.5 727.2  1437.5 723  C 1437.5 718.8  1440.8 715.5  1445 715.5  Z " stroke-width="1" stroke="#797979" fill="none" />
  <path d="M 1445 727  C 1442.76 727  1441 725.24  1441 723  C 1441 720.76  1442.76 719  1445 719  C 1447.24 719  1449 720.76  1449 723  C 1449 725.24  1447.24 727  1445 727  " fill-rule="nonzero" fill="#797979" stroke="none" />
</svg>