<?xml version="1.0" encoding="utf-8"?>
<svg version="1.1" xmlns:xlink="http://www.w3.org/1999/xlink" width="16px" height="16px" viewBox="1437 776  16 16" xmlns="http://www.w3.org/2000/svg">
  <path d="M 1445 776  C 1449.48 776  1453 779.52  1453 784  C 1453 788.48  1449.48 792  1445 792  C 1440.52 792  1437 788.48  1437 784  C 1437 779.52  1440.52 776  1445 776  Z " fill-rule="nonzero" fill="#ffffff" stroke="none" />
  <path d="M 1445 776.5  C 1449.2 776.5  1452.5 779.8  1452.5 784  C 1452.5 788.2  1449.2 791.5  1445 791.5  C 1440.8 791.5  1437.5 788.2  1437.5 784  C 1437.5 779.8  1440.8 776.5  1445 776.5  Z " stroke-width="1" stroke="#797979" fill="none" />
  <path d="M 1445 788  C 1442.76 788  1441 786.24  1441 784  C 1441 781.76  1442.76 780  1445 780  C 1447.24 780  1449 781.76  1449 784  C 1449 786.24  1447.24 788  1445 788  " fill-rule="nonzero" fill="#797979" stroke="none" />
</svg>