<?xml version="1.0" encoding="utf-8"?>
<svg version="1.1" xmlns:xlink="http://www.w3.org/1999/xlink" width="16px" height="16px" viewBox="1548 776  16 16" xmlns="http://www.w3.org/2000/svg">
  <path d="M 1556 776  C 1560.48 776  1564 779.52  1564 784  C 1564 788.48  1560.48 792  1556 792  C 1551.52 792  1548 788.48  1548 784  C 1548 779.52  1551.52 776  1556 776  Z " fill-rule="nonzero" fill="#ffffff" stroke="none" />
  <path d="M 1556 776.5  C 1560.2 776.5  1563.5 779.8  1563.5 784  C 1563.5 788.2  1560.2 791.5  1556 791.5  C 1551.8 791.5  1548.5 788.2  1548.5 784  C 1548.5 779.8  1551.8 776.5  1556 776.5  Z " stroke-width="1" stroke="#797979" fill="none" />
  <path d="M 1556 788  C 1553.76 788  1552 786.24  1552 784  C 1552 781.76  1553.76 780  1556 780  C 1558.24 780  1560 781.76  1560 784  C 1560 786.24  1558.24 788  1556 788  " fill-rule="nonzero" fill="#797979" stroke="none" />
</svg>