<?xml version="1.0" encoding="utf-8"?>
<svg version="1.1" xmlns:xlink="http://www.w3.org/1999/xlink" width="16px" height="16px" viewBox="1276 98.5  16 16" xmlns="http://www.w3.org/2000/svg">
  <path d="M 1284 98.5  C 1288.48 98.5  1292 102.02  1292 106.5  C 1292 110.98  1288.48 114.5  1284 114.5  C 1279.52 114.5  1276 110.98  1276 106.5  C 1276 102.02  1279.52 98.5  1284 98.5  Z " fill-rule="nonzero" fill="#ffffff" stroke="none" />
  <path d="M 1284 99  C 1288.2 99  1291.5 102.3  1291.5 106.5  C 1291.5 110.7  1288.2 114  1284 114  C 1279.8 114  1276.5 110.7  1276.5 106.5  C 1276.5 102.3  1279.8 99  1284 99  Z " stroke-width="1" stroke="#797979" fill="none" />
  <path d="M 1284 110.5  C 1281.76 110.5  1280 108.74  1280 106.5  C 1280 104.26  1281.76 102.5  1284 102.5  C 1286.24 102.5  1288 104.26  1288 106.5  C 1288 108.74  1286.24 110.5  1284 110.5  " fill-rule="nonzero" fill="#797979" stroke="none" />
</svg>