<?xml version="1.0" encoding="utf-8"?>
<svg version="1.1" xmlns:xlink="http://www.w3.org/1999/xlink" width="16px" height="16px" viewBox="1447 98.5  16 16" xmlns="http://www.w3.org/2000/svg">
  <path d="M 1455 98.5  C 1459.48 98.5  1463 102.02  1463 106.5  C 1463 110.98  1459.48 114.5  1455 114.5  C 1450.52 114.5  1447 110.98  1447 106.5  C 1447 102.02  1450.52 98.5  1455 98.5  Z " fill-rule="nonzero" fill="#ffffff" stroke="none" />
  <path d="M 1455 99  C 1459.2 99  1462.5 102.3  1462.5 106.5  C 1462.5 110.7  1459.2 114  1455 114  C 1450.8 114  1447.5 110.7  1447.5 106.5  C 1447.5 102.3  1450.8 99  1455 99  Z " stroke-width="1" stroke="#797979" fill="none" />
  <path d="M 1455 110.5  C 1452.76 110.5  1451 108.74  1451 106.5  C 1451 104.26  1452.76 102.5  1455 102.5  C 1457.24 102.5  1459 104.26  1459 106.5  C 1459 108.74  1457.24 110.5  1455 110.5  " fill-rule="nonzero" fill="#797979" stroke="none" />
</svg>