<?xml version="1.0" encoding="utf-8"?>
<svg version="1.1" xmlns:xlink="http://www.w3.org/1999/xlink" width="1094px" height="666px" xmlns="http://www.w3.org/2000/svg">
  <defs>
    <mask fill="white" id="clip4">
      <path d="M 0 666  L 0 0  L 1093.40540540541 0  L 1093.40540540541 342  L 547 342  L 547 666  L 0 666  Z " fill-rule="evenodd" />
    </mask>
  </defs>
  <g transform="matrix(1 0 0 1 -534 0 )">
    <path d="M 0 666  L 0 0  L 1093.40540540541 0  L 1093.40540540541 342  L 547 342  L 547 666  L 0 666  Z " fill-rule="nonzero" fill="#212749" stroke="none" transform="matrix(1 0 0 1 534 0 )" />
    <path d="M 0 666  L 0 0  L 1093.40540540541 0  L 1093.40540540541 342  L 547 342  L 547 666  L 0 666  Z " stroke-width="2" stroke="#797979" fill="none" transform="matrix(1 0 0 1 534 0 )" mask="url(#clip4)" />
  </g>
</svg>