<?xml version="1.0" encoding="utf-8"?>
<svg version="1.1" xmlns:xlink="http://www.w3.org/1999/xlink" width="16px" height="16px" viewBox="383 113.5  16 16" xmlns="http://www.w3.org/2000/svg">
  <path d="M 391 113.5  C 395.48 113.5  399 117.02  399 121.5  C 399 125.98  395.48 129.5  391 129.5  C 386.52 129.5  383 125.98  383 121.5  C 383 117.02  386.52 113.5  391 113.5  Z " fill-rule="nonzero" fill="#ffffff" stroke="none" />
  <path d="M 391 114  C 395.2 114  398.5 117.3  398.5 121.5  C 398.5 125.7  395.2 129  391 129  C 386.8 129  383.5 125.7  383.5 121.5  C 383.5 117.3  386.8 114  391 114  Z " stroke-width="1" stroke="#797979" fill="none" />
  <path d="M 391 125.5  C 388.76 125.5  387 123.74  387 121.5  C 387 119.26  388.76 117.5  391 117.5  C 393.24 117.5  395 119.26  395 121.5  C 395 123.74  393.24 125.5  391 125.5  " fill-rule="nonzero" fill="#797979" stroke="none" />
</svg>