<?xml version="1.0" encoding="utf-8"?>
<svg version="1.1" xmlns:xlink="http://www.w3.org/1999/xlink" width="16px" height="16px" viewBox="710 116.5  16 16" xmlns="http://www.w3.org/2000/svg">
  <path d="M 718 116.5  C 722.48 116.5  726 120.02  726 124.5  C 726 128.98  722.48 132.5  718 132.5  C 713.52 132.5  710 128.98  710 124.5  C 710 120.02  713.52 116.5  718 116.5  Z " fill-rule="nonzero" fill="#ffffff" stroke="none" />
  <path d="M 718 117  C 722.2 117  725.5 120.3  725.5 124.5  C 725.5 128.7  722.2 132  718 132  C 713.8 132  710.5 128.7  710.5 124.5  C 710.5 120.3  713.8 117  718 117  Z " stroke-width="1" stroke="#797979" fill="none" />
  <path d="M 718 128.5  C 715.76 128.5  714 126.74  714 124.5  C 714 122.26  715.76 120.5  718 120.5  C 720.24 120.5  722 122.26  722 124.5  C 722 126.74  720.24 128.5  718 128.5  " fill-rule="nonzero" fill="#797979" stroke="none" />
</svg>