<?xml version="1.0" encoding="utf-8"?>
<svg version="1.1" xmlns:xlink="http://www.w3.org/1999/xlink" width="16px" height="16px" viewBox="484 103.5  16 16" xmlns="http://www.w3.org/2000/svg">
  <path d="M 492 103.5  C 496.48 103.5  500 107.02  500 111.5  C 500 115.98  496.48 119.5  492 119.5  C 487.52 119.5  484 115.98  484 111.5  C 484 107.02  487.52 103.5  492 103.5  Z " fill-rule="nonzero" fill="#ffffff" stroke="none" />
  <path d="M 492 104  C 496.2 104  499.5 107.3  499.5 111.5  C 499.5 115.7  496.2 119  492 119  C 487.8 119  484.5 115.7  484.5 111.5  C 484.5 107.3  487.8 104  492 104  Z " stroke-width="1" stroke="#797979" fill="none" />
  <path d="M 492 115.5  C 489.76 115.5  488 113.74  488 111.5  C 488 109.26  489.76 107.5  492 107.5  C 494.24 107.5  496 109.26  496 111.5  C 496 113.74  494.24 115.5  492 115.5  " fill-rule="nonzero" fill="#797979" stroke="none" />
</svg>