<?xml version="1.0" encoding="utf-8"?>
<svg version="1.1" xmlns:xlink="http://www.w3.org/1999/xlink" width="16px" height="16px" viewBox="821 116.5  16 16" xmlns="http://www.w3.org/2000/svg">
  <path d="M 829 116.5  C 833.48 116.5  837 120.02  837 124.5  C 837 128.98  833.48 132.5  829 132.5  C 824.52 132.5  821 128.98  821 124.5  C 821 120.02  824.52 116.5  829 116.5  Z " fill-rule="nonzero" fill="#ffffff" stroke="none" />
  <path d="M 829 117  C 833.2 117  836.5 120.3  836.5 124.5  C 836.5 128.7  833.2 132  829 132  C 824.8 132  821.5 128.7  821.5 124.5  C 821.5 120.3  824.8 117  829 117  Z " stroke-width="1" stroke="#797979" fill="none" />
  <path d="M 829 128.5  C 826.76 128.5  825 126.74  825 124.5  C 825 122.26  826.76 120.5  829 120.5  C 831.24 120.5  833 122.26  833 124.5  C 833 126.74  831.24 128.5  829 128.5  " fill-rule="nonzero" fill="#797979" stroke="none" />
</svg>