<?xml version="1.0" encoding="utf-8"?>
<svg version="1.1" xmlns:xlink="http://www.w3.org/1999/xlink" width="16px" height="16px" viewBox="931 116.5  16 16" xmlns="http://www.w3.org/2000/svg">
  <path d="M 939 116.5  C 943.48 116.5  947 120.02  947 124.5  C 947 128.98  943.48 132.5  939 132.5  C 934.52 132.5  931 128.98  931 124.5  C 931 120.02  934.52 116.5  939 116.5  Z " fill-rule="nonzero" fill="#ffffff" stroke="none" />
  <path d="M 939 117  C 943.2 117  946.5 120.3  946.5 124.5  C 946.5 128.7  943.2 132  939 132  C 934.8 132  931.5 128.7  931.5 124.5  C 931.5 120.3  934.8 117  939 117  Z " stroke-width="1" stroke="#797979" fill="none" />
  <path d="M 939 128.5  C 936.76 128.5  935 126.74  935 124.5  C 935 122.26  936.76 120.5  939 120.5  C 941.24 120.5  943 122.26  943 124.5  C 943 126.74  941.24 128.5  939 128.5  " fill-rule="nonzero" fill="#797979" stroke="none" />
</svg>