<?xml version="1.0" encoding="utf-8"?>
<svg version="1.1" xmlns:xlink="http://www.w3.org/1999/xlink" width="12px" height="12px" viewBox="404 150.5  12 12" xmlns="http://www.w3.org/2000/svg">
  <path d="M 410 150.5  C 413.36 150.5  416 153.14  416 156.5  C 416 159.86  413.36 162.5  410 162.5  C 406.64 162.5  404 159.86  404 156.5  C 404 153.14  406.64 150.5  410 150.5  Z " fill-rule="nonzero" fill="#ffffff" stroke="none" />
  <path d="M 410 151  C 413.08 151  415.5 153.42  415.5 156.5  C 415.5 159.58  413.08 162  410 162  C 406.92 162  404.5 159.58  404.5 156.5  C 404.5 153.42  406.92 151  410 151  Z " stroke-width="1" stroke="#797979" fill="none" />
  <path d="M 410 159.5  C 408.32 159.5  407 158.18  407 156.5  C 407 154.82  408.32 153.5  410 153.5  C 411.68 153.5  413 154.82  413 156.5  C 413 158.18  411.68 159.5  410 159.5  " fill-rule="nonzero" fill="#797979" stroke="none" />
</svg>