<?xml version="1.0" encoding="utf-8"?>
<svg version="1.1" xmlns:xlink="http://www.w3.org/1999/xlink" width="31px" height="23px" xmlns="http://www.w3.org/2000/svg">
  <g transform="matrix(1 0 0 1 -789 -155 )">
    <path d="M 5.8125 11.5  L 9.6875 11.5  L 9.6875 19.1666666666667  L 5.8125 19.1666666666667  L 5.8125 11.5  Z M 12 3.83333333333333  L 15 3.83333333333333  L 15 19.1666666666667  L 12 19.1666666666667  L 12 3.83333333333333  Z M 2 21  L 31 21  L 31 23  L 0 23  L 0 0  L 2 0  L 2 21  Z M 17 7.66666666666667  L 21 7.66666666666667  L 21 19.1666666666667  L 17 19.1666666666667  L 17 7.66666666666667  Z M 23 1.91666666666667  L 27 1.91666666666667  L 27 19.1666666666667  L 23 19.1666666666667  L 23 1.91666666666667  Z " fill-rule="nonzero" fill="#ffffff" stroke="none" transform="matrix(1 0 0 1 789 155 )" />
  </g>
</svg>